<?xml version="1.0" encoding="utf-8"?>

<!-- The icon can be used freely in both personal and commercial projects with no attribution required, but always appreciated. 
You may NOT sub-license, resell, rent, redistribute or otherwise transfer the icon without express written permission from iconmonstr.com -->

<!DOCTYPE svg PUBLIC "-//W3C//DTD SVG 1.1//EN" "http://www.w3.org/Graphics/SVG/1.1/DTD/svg11.dtd">
<svg version="1.1" xmlns="http://www.w3.org/2000/svg" xmlns:xlink="http://www.w3.org/1999/xlink" x="0px" y="0px"
	 width="512px" height="512px" viewBox="0 0 512 512" enable-background="new 0 0 512 512" xml:space="preserve">
<path id="location-18-icon" d="M362.881,50c-42.426,0-76.82,34.395-76.82,76.821s33.621,91.733,76.82,165.709
	c43.201-73.976,76.822-123.282,76.822-165.709S405.309,50,362.881,50z M362.881,152.505c-15.215,0-27.549-12.335-27.549-27.548
	c0-15.216,12.334-27.55,27.549-27.55c15.217,0,27.551,12.334,27.551,27.55C390.432,140.17,378.098,152.505,362.881,152.505z
	 M233.043,196.118c0.135-0.148,0.438-1.161,0.035-1.134c-0.215,0.017-0.379,0.188-0.582,0.233c-0.045,0.009-0.092-0.005-0.127-0.033
	c-0.033-0.031-0.051-0.077-0.045-0.121c0.002-0.021,0.008-0.041,0.016-0.056c0.002-0.003,0.004-0.004,0.006-0.008
	c0.135-0.232,0.578-0.101,0.588-0.452c0.002-0.095-0.064-0.159-0.119-0.229c-0.062-0.077-0.068-0.186-0.012-0.271
	c0.059-0.079,0.16-0.114,0.254-0.082c0.002,0,0.002,0,0.002,0c0.564,0.188,1.186,0.041,1.609-0.379
	c0.42-0.419,0.57-1.039,0.385-1.604c-0.006-0.013-0.008-0.026-0.012-0.04c-0.004-0.015-0.008-0.027-0.01-0.042
	c-0.047-0.227-0.199-0.414-0.402-0.512c-0.146-0.072-0.264-0.186-0.338-0.331c-0.004-0.008-0.014-0.014-0.021-0.018
	c-0.02-0.004-0.041-0.001-0.057,0.009c-0.543,0.328-0.557,0.329-0.654-0.083c-0.004-0.017-0.014-0.031-0.025-0.04
	c-0.018-0.012-0.018-0.012-0.018-0.012c-0.148,0.043-0.305-0.022-0.377-0.159c-0.072-0.133-0.039-0.303,0.078-0.401
	c0.117-0.101,0.275-0.222,0.475-0.38c0.35-0.272,0.234-0.648,0.248-0.996c0-0.06-0.027-0.118-0.076-0.152
	c-0.047-0.039-0.111-0.048-0.168-0.031c-0.15,0.053-0.301,0.109-0.447,0.172c-0.188,0.081-0.229,0.134-0.355,0.287
	c-0.137,0.16-0.238,0.284-0.32,0.377c-0.064,0.08-0.18,0.097-0.266,0.04c-0.086-0.058-0.115-0.17-0.07-0.262
	c0.023-0.046,0.053-0.092,0.086-0.135c0-0.003,0-0.003,0-0.003c0.314-0.424,0.283-1.01-0.072-1.398
	c-0.031-0.033-0.049-0.077-0.055-0.141c-0.01-0.187,0.184-0.833,0.459-0.889c0.006-0.002,0.016-0.004,0.02-0.006
	c0.07-0.014,0.117-0.014,0.213,0.139c0.021,0.029,0.057,0.046,0.092,0.04c0.023-0.004,0.041-0.019,0.051-0.04
	c0.078-0.193,0.104-0.402,0.191-0.594c0.02-0.045,0.02-0.1,0-0.146c0-0.003-0.002-0.005-0.002-0.008
	c-0.15,0.079-0.336,0.048-0.453-0.077c-0.113-0.125-0.131-0.312-0.043-0.455c0.07-0.116,0.17-0.222,0.305-0.291
	c0.012-0.006,0.025-0.014,0.041-0.02c0.07-0.029,0.152-0.029,0.225,0.002c0.119,0.052,0.262,0.034,0.371-0.049
	c0.021-0.016,0.041-0.032,0.062-0.048c0.391-0.311,0.732-0.669,1.021-1.074c0.145-0.199,0.285-0.35,0.406-0.395
	c0.184-0.07,0.367-0.097,0.549-0.096c0.48,0,0.971,0.065,1.434,0.184c0.197,0.052,0.643,0.257,0.109,0.59
	c-0.242,0.148-0.531,0.213-0.742,0.414c-0.158,0.148-0.174,0.369-0.285,0.538c-0.018,0.03-0.02,0.067-0.002,0.096
	c0.016,0.029,0.051,0.046,0.084,0.044c0.438-0.027,2.752-0.12,2.238,0.597c-0.225,0.309-0.406,0.653-0.543,1.01
	c-0.318,0.86-0.361,1.811-0.1,2.71c0.074,0.246,0.1,0.501,0.078,0.726c-0.025,0.249-0.096,0.497-0.07,0.75
	c0.025,0.251,0.291,0.427,0.223,0.7c-0.008,0.022-0.002,0.048,0.008,0.069c0.004,0.004,0.008,0.008,0.014,0.007
	c0.053-0.009,0.086-0.014,0.113-0.014c0.219,0.001,0.447-0.004,0.664-0.02c0.07-0.004,0.09,0.017,0.123,0.055
	c0.006,0.007,0.525,1.118,0.426,1.253c-0.002,0.003-0.002,0.005-0.006,0.008c-0.109,0.158-0.098,0.371,0.033,0.515
	c0.15,0.165,0.279,0.342,0.299,0.591c0.012,0.113,0.012,0.119-0.506,0.518c-0.055,0.042-0.078,0.112-0.062,0.181
	c0.453,0.233,0.453,0.233,0.701,0.103c0.371-0.202,1.68,0.471,1.736,0.502c0.006,0.005,0.01,0.007,0.014,0.008
	c0.707,0.396,0.604,0.948,0.576,1.056c-0.09,0.353-0.186,0.532-0.346,0.623c-0.299,0.164-0.596,0.353-0.875,0.553
	c-0.047,0.033-0.123,0.021-0.25-0.062c-0.02-0.014-0.045-0.035-0.068-0.055c-0.033-0.023-0.074-0.031-0.111-0.02
	c-0.037,0.009-0.059,0.043-0.053,0.081c0.055,0.468,0.326,0.89,0.732,1.132c0.008,0.002,0.012,0.006,0.016,0.01
	c0.008,0.005,0.014,0.014,0.014,0.022c0.021,0.48-1.141,0.701-1.15,0.701c0,0,0,0-0.002,0s-0.004,0-0.004,0
	c-0.389-0.032-0.748,0.2-1.143,0.141c-0.324-0.053-0.572-0.33-0.914-0.335c-0.812-0.014-0.812-0.014-0.963-0.106
	c-0.053-0.032-0.605-0.18-0.805-0.189c-0.543-0.029-0.957,0.354-1.457,0.458c-0.445,0.094-0.77-0.331-1.203-0.298
	c-0.615,0.053-0.826,0.639-1.242,0.952c-0.039,0.028-0.09,0.037-0.135,0.023c-0.006-0.002-0.01-0.002-0.014-0.003
	c-0.311-0.597-0.877-0.365-1.188-0.175c-0.092,0.058-0.178,0.107-0.254,0.155c-0.109,0.067-0.252,0.041-0.33-0.06
	c-0.082-0.101-0.074-0.245,0.016-0.338c0.168-0.172,0.352-0.359,0.527-0.533c0.523-0.526,1.207-0.846,1.932-0.924
	c0.234-0.024,0.473-0.022,0.709,0.004c0.439,0.051,0.756-0.181,1.074-0.405c0.076-0.055,0.107-0.153,0.076-0.242
	c-0.029-0.09-0.115-0.148-0.207-0.146c-0.125,0.005-0.244,0.039-0.359,0.14c-0.029,0.025-0.061,0.045-0.094,0.059
	c-0.141,0.061-0.299,0.062-0.439,0.007c-0.029-0.013-0.061-0.028-0.086-0.056c-0.289-0.307-0.662-0.529-1.072-0.636
	c-0.436-0.111-0.842,0.271-1.277,0.062c-0.287-0.139-0.246-0.562-0.18-0.638c0.07-0.072,0.207-0.094,0.414-0.125
	C231.871,196.648,232.895,196.284,233.043,196.118z M225.201,194.34c0.51-0.659,0.416-0.744,0.24-0.896
	c-0.234-0.212-0.172-0.395-0.006-0.6c0.201-0.25,0.463-0.447,0.656-0.7c0.168-0.208,0.197-0.494,0.422-0.67
	c0.291-0.228,0.49-0.215,0.926-0.19c0.344,0.021,1.17-1.476,2.197-1.74c0.988-0.256,2.568,1.645,2.121,2.305
	c-0.094,0.146-0.348,0.18-0.623,0.221c-0.283,0.041-0.443,0.059-0.682,0.771c-0.092,0.268,0.213,0.635-0.133,0.823
	c-0.312,0.168-0.064,0.499-0.16,0.732c-0.205,0.472-0.641,1.06-0.895,1.384c-0.26,0.327-1.014,0.092-1.877,0.331
	c-0.006,0-0.014,0.002-0.02,0.004c-0.627,0.169-1.18,0.524-1.77,0.779c-0.652,0.282-1.732,0.562-1.865-0.135
	c-0.035-0.191-0.049-0.673,0.055-0.915C224.082,195.174,224.779,194.885,225.201,194.34z M217.9,223.544
	c1.432-3.659,1.43-4.897,1.137-6.119c-0.131-0.539,0.262-1.064,0.814-1.096c0.307-0.016,0.625-0.029,0.891-0.041
	c0.592-0.693,1.582-0.886,2.393-0.476c1.104,0.561,3.307,1.359,7.068,1.538c0.91,0.041,1.822,0.234,2.676,0.558
	c0.795,0.303,1.473-0.393,1.77-0.771c0.703-0.896,0.594-2.01,0.736-3.055c0.072-0.554,0.385-1.047,0.848-1.355
	c0.125-0.083,0.188-0.232,0.16-0.379c-0.033-0.198-0.195-1.773-0.389-1.79c-0.008,0-0.018-0.002-0.025-0.002
	c-1.557-0.169-1.061-2.169-2.084-2.815c-0.863-0.551-0.826-0.925-2.98-1.157c-0.309-0.032,0.424-1.528,1.674-1.927
	c0.07-0.026,0.148-0.02,0.217,0.016c0.77,0.388,1.627,0.57,2.486,0.527c0.324-0.016,0.627-0.179,0.816-0.441
	c0.191-0.264,0.254-0.601,0.166-0.915c-0.002-0.005-0.004-0.01-0.006-0.016c-0.092-0.327,0.193-0.827,0.561-0.588
	c0.715,0.472,1.072,0.773,2.32,0.594c0.307-0.043,0.557-0.272,0.629-0.576c0.033-0.145,0.123-0.267,0.254-0.34
	c1.398-0.792,1.992-1.146,2.271-1.467c0.664-0.769,1.441-1.404,2.33-1.897c1.268-0.706,1.883-1.165,3.092-2.262
	c0.521-0.469,1.143-0.798,1.826-0.957c0.209-0.05,0.344-0.249,0.312-0.462c-0.006-0.04,0.004-0.081,0.029-0.113
	c0.229-0.301,0.574-0.492,0.953-0.529c0.881-0.081,1.406-0.081,1.777-0.081c0-0.005,0.004-0.01,0.01-0.013
	c0.254-0.294,0.625-0.457,1.014-0.446c0.926,0.026,2.139,0.452,1.943-2.08c-0.291-2.278,0.469-4.574,2.055-6.233
	c0.004-0.001,0.006-0.006,0.01-0.008c0.717,0.304,0.557,1.034,0.68,1.808c0.072,0.462-0.068,0.936-0.381,1.279
	c-0.008,0.006-0.01,0.011-0.016,0.018c-3.035,3.366,0.854,3.256,0.959,4.119c0,0.004,0,0.011,0.002,0.016
	c0.014,0.144,0.096,0.274,0.219,0.354c0.125,0.076,0.275,0.094,0.414,0.044c0.131-0.048,3.131-1.298,3.246-1.224
	c0.568,0.356,0.139,0.54,0.592,0.956c0.002,0.002,0.006,0.006,0.012,0.011c0.68,0.623,1.678,0.753,2.492,0.32
	c1.723-0.917,3.703-1.219,5.623-0.866c0.213,0.039,0.5-0.051,0.807-0.22c4.332,9.693,9.404,19.71,15.098,30.193
	c-0.092-0.005-0.182-0.018-0.271-0.018c-1.002,0-2.021,0.29-2.227,1.282c-0.037,0.186-0.143,0.348-0.297,0.457
	c-0.129,0.091-0.297,0.109-0.441,0.044c-0.254-0.118-0.504-0.087-0.699,0.046c-0.209,0.142-0.322,0.369-0.295,0.683
	c0.076,0.862,2.41,1.749,0.52,2.62l-0.014,0.01c0,0-0.812,0.475-0.883,0.509c-0.779,0.386-1.793-0.47-2.467-0.511
	c-0.221-0.011-0.434,0.081-0.658,0.075c-0.006,0-0.014,0-0.018,0c-0.133-0.001-0.215-0.053-0.246-0.079
	c-0.002-0.004-0.004-0.007-0.008-0.007c-0.066-0.058-0.797-0.709-0.914-0.909c-0.285-0.485-0.312-0.533-0.465-0.696
	c-0.123-0.124-0.334-0.286-0.504-0.406c-0.369-0.261-0.604-0.675-0.635-1.124c0-0.002,0-0.002,0-0.002
	c-0.025-0.353-0.068-0.845-0.133-1.386c-0.145-1.212-0.754-2.314-1.703-3.08c-0.244-0.197-0.551-0.299-0.863-0.285
	c-0.199,0.008-0.398-0.047-0.572-0.161c-0.799-0.531-1.332-0.646-1.332-0.646c-0.002-0.002-0.004-0.006-0.006-0.006l-6.254-4.56
	c-0.357-0.262-0.795-0.389-1.234-0.361c-0.369,0.022-0.566-0.322-0.768-0.627c-0.402-0.614-1.158-0.892-1.863-0.68
	c-0.029,0.01-0.057,0.019-0.086,0.03c-0.443,0.167-0.648,0.699-0.41,1.131c0.131,0.236,0.275,0.468,0.428,0.688l3.637,5.292
	c0.604,0.875,1.605,1.396,2.666,1.385c0.436-0.003,0.803,0.324,0.85,0.756c0.021,0.209,0.141,0.403,0.336,0.516
	c1.732,0.997,3.977,1.144,5.182,3.03c0.01,0.019,0.021,0.037,0.023,0.062c0.002,0.006,0.002,0.011,0.002,0.017
	c0,0.005,0,0.005,0,0.008c0.006,0.141-0.086,0.594-0.16,0.729c-0.127,0.237-0.59,0.34-0.727,0.217
	c-0.096-0.087-0.088-0.296-0.078-0.518c0.004-0.069-0.016-0.154-0.051-0.247c-0.178-0.504-0.555-0.604-1.045-0.814
	c-0.668-0.282-1.439,0.014-1.746,0.673c-0.004,0.007-0.006,0.014-0.008,0.019c-0.01,0.02-0.018,0.039-0.023,0.058
	c-0.291,0.75,0.193,0.978,0.449,1.104c0.406,0.19,1.023,0.485,0.855,1.363c-0.068,0.368-0.473,0.24-0.688,0.396
	c0.018-0.002,0.033,0.075-0.592,1.329c-0.254,0.493-0.02,0.612-0.658,0.939c-0.539,0.263-0.795-0.085-0.859-0.196
	c-0.234-0.398,0.088-0.754,0.078-1.139c-0.006-0.172-0.012-0.325,0.492-0.532c0.713-0.302-0.043-1.476-0.471-2.139
	c-0.006-0.009-0.008-0.015-0.014-0.021c-0.877-1.518-0.297-0.288-1.311-1.231c-0.623-0.586-2.258-1.561-2.58-1.961
	c-2.146-2.659-5.666-3.921-7.512-6.888c-0.373-0.602-0.918-1.079-1.561-1.375c-0.42-0.191-0.922-0.331-1.475-0.305
	c-0.533,0.025-3.07,1.473-5.105,2.633c-1.92,1.098-3.303-1.493-5.172-0.752c-2.02,0.804-0.826,3.442-2.537,4.42
	c-1.945,1.114-4.271,1.481-5.988,3.053c-0.068,0.063-0.121,0.158-0.166,0.262c-0.525,1.209-1.443,1.733-1.506,2.035
	c-0.053,0.25-0.076,0.356,0.029,0.705c0.23,0.729,0,1.524-0.576,2.021c-0.002,0.001-0.004,0.003-0.004,0.005
	c-0.377,0.329-0.061,1.375-0.404,1.56c-0.637,0.33-1.324-0.03-1.971,0.155c-0.973,0.275-1.021,1.535-1.977,1.828
	c-1.246,0.375-2.451-0.411-3.695-0.138c-2.805,0.612-2.805,0.612-2.91,0.867c-0.1,0.23-0.324,0.615-0.719,0.61
	c-1.457-0.029-0.92-1.854-1.607-2.641c-0.744-0.855-0.951-0.763-1.289-0.621c-0.453,0.197-1.215,0.528-1.447,0.393
	c-0.314-0.193-0.561-0.481-0.924-0.587c-0.248-0.072-0.457-0.242-0.574-0.475c-0.209-0.41,0.312-2.072,0.428-2.549
	c0.072-0.288,0.055-0.591-0.053-0.867c-0.127-0.325-0.434-0.543-0.781-0.552c-0.068-0.001-0.133-0.03-0.176-0.082
	c-0.408-0.447,1.264-2.14,1.727-3.002C217.768,223.881,217.846,223.686,217.9,223.544z M331.033,340.674
	c-0.67,1.251-0.838,1.563-0.244,3.246c0.424,1.198,1.693,6.747,1.889,13.86c0.211,7.753-1.037,9.027-3.521,10.826
	c-3.977,2.88-6.689,4.843-8.551,6.222c-2.182,1.61-3.486,4.15-3.518,6.864c-0.012,0.998-0.248,2.255-0.93,3.771
	c0.002,0.003,0.004,0.008,0.006,0.012c0.143,0.271-5.127,2.909-6.941,5.053c-0.002,0.002-0.004,0.002-0.004,0.003
	c-0.008,0.053-0.004,0.106,0.014,0.156c1.225,3.839-14.311,14.978-17.537,14.952c-2.336-0.018-8.062,0.896-10.795,2.062
	c-1.84,0.787-6.814-0.901-7.182-1.963c-0.057-0.159-0.072-0.448,0.055-0.556c1.221-1.008-2.889-6.944-3.869-7.619
	c-0.627-0.437-1.822-3.209-2.311-3.9c-1.498-2.119,1.078-5.105-0.594-7.219c-0.09-0.11-0.18-0.228-0.262-0.345l-4.84-6.759
	c-0.752-1.051-2.893-2.296-2.9-3.587c0-0.002,0-0.005,0-0.007c-0.014-1.41,2.504-8.211,2.705-8.498
	c0.738-1.062,0.535-1.202,1.297-1.595c1.229-0.627,2.986-2.178,0.977-5.468c-0.117-0.197-0.117,0.669-0.758-3.888
	c-0.418-2.997-4.355-9.782-5.023-10.493c0,0-4.564-2.179-6.658-6.474c0.107-0.245,0.27-0.457,0.477-0.625
	c1.932-1.545,1.586-3.484,2.154-7.652c0.195-1.42,0.838-2.482-0.551-4.588c-0.545-0.821-2.02,0.062-2.172-1.433
	c-0.002-0.008-0.002-0.017-0.004-0.021c0-0.01-0.004-0.015-0.012-0.02c-0.904-0.367-1.902-0.418-2.838-0.144
	c-2.061,0.602-6.434,1.498-6.924-1.334c-0.658-3.806-3.258-4.636-4.537-4.547c-5.453,0.384-12.053,6.102-16.447,4.448
	c-4.844-1.829-10.072-1.864-14.996-2.812c-1.672-0.322-4.08-1.135-5.293-2.326c-7.516-7.391-7.387-7.156-8.094-8.242
	c-2.625-4.034-2.178-9.479-4.463-13.791c-0.006-0.014-0.016-0.024-0.023-0.037c-1.609-2.102-2.111-4.86-1.348-7.395
	c2.084-6.923,4.711-12.84,2.377-17.312c-0.785-1.505-0.785-1.505,3.107-6.932c7.09-9.887,8.309-10.381,9.723-10.951c0,0,0,0,0,0.004
	c0.006,0,0.01,0.001,0.014,0.001c3.084,0.351,8.922-3.41,8.812-5.452c-0.205-4.312,3.059-5.979,9.072-10.865
	c1.178-0.954,2.834-1.037,4.102-0.204c0.859-0.301,1.807-0.264,2.639,0.104c1.092,0.481,1.789,0.147,2.131-0.013
	c3.859-1.853,8.07-2.418,27.639-3.666c0.664-0.042,1.303,0.246,1.709,0.77c0.004,0.005,0.008,0.012,0.012,0.016
	c1.152,1.489,0.291,1.299,1.6,3.497c0.496,0.838,0.008,1.473-1.557,3.051c-0.594,0.6-0.496,1.555-0.303,1.585
	c1.949,0.099,2.445,1.193,8.258,2.874c1.656,0.478,3.129,1.444,4.232,2.765c0.719,0.864,10.402,6.649,10.012-1.218
	c-0.027-0.549,0.51-1.503,1.414-2.239c3.145-2.562,5.457,0.754,6.318,0.951c1.391,0.316,1.568,0.315,2.5,0.295
	c0.008,0,0.018,0,0.023,0c0.004,0,0.008,0,0.014,0c0.863,0.016,1.262,1.006,4.025,0.819c1.48-0.101,3.836-0.05,6.303-0.029
	c5.604,9.663,11.586,19.736,17.875,30.327c5.861,9.865,11.922,20.066,18.199,30.818l7.562,12.95
	c-1.998,2.055-4.488,5.03-6.637,9.236C335.732,333.738,333.029,336.988,331.033,340.674z M418.482,258.017
	c1.648,9.632,2.52,19.528,2.52,29.63C421.002,383.94,342.943,462,246.648,462c-96.291,0-174.352-78.06-174.352-174.354
	c0-96.292,78.061-174.352,174.352-174.352c3.334,0,6.645,0.103,9.932,0.288c-0.537,4.339-0.818,8.756-0.818,13.238
	c0,6.266,0.539,12.527,1.535,18.833c-0.912-0.068-1.828-0.128-2.748-0.179c-2.854,1.766-5.711,3.737-8.281,5.866
	c-9.387,7.778-24.213,10.996-23.877,10.134c-1.414,0.018-1.789-0.367-1.789-0.367c-0.463,0.118-0.873,0.381-1.26,0.109
	c-0.002-0.002-0.006-0.003-0.008-0.006c0.016-0.184-0.07-0.363-0.221-0.467c-0.496-0.333-1.467,0.451-3.816,1.646
	c-0.008,0.003-0.018,0.008-0.025,0.013c-0.045,0.022-0.088,0.044-0.131,0.066c-0.992,0.525-2.104,0.65-2.852,0.661
	c-0.543,0.009-1.07,0.113-1.574,0.314c-0.076,0.028-0.164,0-0.205-0.069c-0.174-0.277,0.684-0.589,0.992-0.708
	c0.281-0.109,0.146-0.426-1.029,0.247c-0.252,0.145-0.553,0.185-0.838,0.113c-1.178-0.302-2.59,0.642-3.521,1.42
	c-0.146,0.121-0.332,0.19-0.559,0.095c-0.326-0.138-0.613-0.088-0.516,0.416c0.111,0.541-2.994,1.915-3.049,1.681
	c-0.061-0.17-0.238-0.268-0.412-0.23c-0.406,0.086-0.898,0.417-1.17,0.928c-0.496,0.938-1.844,1.097-2.504,1.646
	c-0.68,0.564-1.691,1.127-1.691,1.127c-0.371,0.43-0.623,0.671-1.018,0.688c-0.387,0.017-0.613-0.662-0.441-0.924
	c0.104-0.156,0.848-0.888,0.668-0.926c-0.072-0.014-0.137-0.062-0.172-0.129c-0.127-0.243,0.457-0.498,0.307-0.796
	c-0.102-0.199-1.225-0.264-1.311-0.367c-0.066-0.073-0.082-0.18-0.037-0.269c0.695-1.418,0.789-1.509,1.736-2.445
	c-0.002-0.006-0.008-0.011-0.008-0.016c-0.1-0.148-0.1-0.342,0-0.486c0.531-0.774,2.287-3.085,4.334-3.364
	c0.545-0.076,0.193-0.189,0.193-0.189c-0.512-0.201-1.166-0.347-0.791-0.751c0.727-0.792,1.84-1.845,3.086-2.465
	c0.598-0.298,1.156-0.658,1.67-1.085c0.508-0.42,2.221-1.164,4.07-1.245c0.004,0,0.006-0.003,0.01-0.003
	c1.543-0.099,5.627-2.88,5.662-2.92c-0.002,0-0.002,0-0.006-0.003c-0.127-0.119,0.066-0.533,0.027-0.746
	c-0.016-0.089,0.027-0.178,0.105-0.22c0.402-0.213,0.867-0.291,1.281-0.473c0.057-0.024,0.096-0.073,0.105-0.135
	c0.021-0.156-0.156-0.258-0.303-0.202c-0.848,0.314-1.199,0.444-1.398,0.503c-0.109,0.032-0.223-0.016-0.277-0.114
	c-0.053-0.097-0.031-0.219,0.055-0.293c0.969-0.836,2.275-0.848,3.428-1.246c0.502-0.174,0.504-1.24-0.543-1.067
	c-5.156,0.847-9.842,2.383-14.732,4c0.002,0.004,0.002,0.007,0.002,0.011c0.035,0.146-0.984,0.633-1.111,0.759
	c-0.064,0.062-0.088,0.156-0.064,0.242c0.002,0.005,0.002,0.013,0.006,0.018c0.062,0.005,0.08,0.082,0.033,0.119
	c-0.193,0.145-0.562-0.003-0.672,0.205c-0.133,0.249,0.334,0.15,0.422,0.325c0.068,0.131,0.045,0.288-0.059,0.394
	c0,0.001,0,0.001,0,0.003c-0.152,0.155-0.916,0.491-1.033,0.351c-0.107-0.133-0.127-0.246-0.277-0.15
	c-0.547,0.354-0.891,0.565-1.207,0.618c-1.102,0.192-2.504,0.781-2.504,0.781c0.166-0.14,0.689-0.634,0.777-0.82
	c0.299-0.609,0.627-0.8,0.996-0.897c0.262-0.069,0.303-0.439-0.879,0.009c-1.066,0.402-2.051,1.019-2.877,1.802
	c-0.697,0.655-1.518,1.366-2.109,1.675c0.111-0.191,0.031-0.24-0.051-0.199c-0.068,0.034-0.631,0.544-0.854,0.481
	c-0.707-0.189,0.215-0.591,0.215-1.292c0.074-0.116,0.168-0.211,0.27-0.298c0,0.002-0.002,0.002-0.004,0.002
	c-0.803,0.344-1.527,0.861-2.119,1.503c-0.477,0.521-0.867,1.14-1.379,0.635c-0.246-0.24-0.615-0.309-0.93-0.161
	c-1.965,0.918-3.904,1.882-5.816,2.887c-0.203,0.105-0.395,0.232-0.57,0.381c-0.131,0.111-0.219,0.268-0.244,0.439
	c-0.029,0.205-0.377,0.653-0.508,0.869c-0.057,0.098-0.053,0.218,0.006,0.315c0.176,0.27,0.76,0.072,1.068-0.028
	c0.438-0.143,0.918,0.035,1.156,0.431c0.23,0.385,0.17,0.877-0.145,1.199c-0.258,0.266-0.512,0.562-0.736,0.858
	c-0.471,0.627-0.91,1.285-1.586,1.709c-0.41,0.26-0.805,0.558-1.166,0.881c-3.689,3.31-3.809,9.327-6.525,10.54
	c-0.004,0.004-0.01,0.008-0.018,0.009c-2.082,0.924-2.807,0.126-5.301,1.056c-0.486,0.181-0.941,0.051-1.398-0.071
	c-0.387-0.104-0.703-0.385-0.852-0.759c-0.547-1.389-2.115-2.073-3.506-1.527c-0.232,0.092-0.479,0.131-0.75,0.061
	c-0.006-0.003-0.01-0.007-0.012-0.01c-0.002-0.001-0.006-0.002-0.008-0.005c-0.457,0.131-3.379,1.062-3.17,1.475
	c0.002,0.003,5.145-1.569,3.988,1.209c-0.002,0.002-0.006,0.002-0.006,0.003c-0.195,0.056-0.352,0.19-0.438,0.371
	c-0.123,0.264-0.275,0.414-0.703,0.512c-0.49,0.113-1.01-0.025-1.381-0.367c-0.002-0.003-0.008-0.005-0.01-0.005
	c-0.26,0.046-0.377,0.692-0.271,0.871c0.135,0.23,0.816,0.229,0.111,0.662c-0.414,0.252-0.973,0.388-1.156,0.84
	c-0.221,0.532-0.492,1.042-0.812,1.521c-0.336,0.501,0.395,0.66-0.176,1.121c-0.678,0.549-3.012,0.02-3.828,0.172
	c-0.002,0-1.406,0.137-2.252,0.433c-0.846,0.297-2.369,0.677-3.209,1.691c-1.445,1.749-1.32,2.116-3.012,1.646
	c-0.094-0.027-0.199,0.001-0.268,0.074c-17.227,18.279-29.668,41.115-35.334,66.506c-0.004,0.021-0.01,0.045-0.014,0.065
	c-0.375,1.617-0.801,3.597-1.424,7.309c-0.014,0.086-0.014,0.172,0.004,0.261c0.086,0.414,0.168,0.521,0.695,0.521
	c1.252,0,2.324,0.888,2.555,2.119c0.057,0.354,0.271,0.602,0.555,0.718c0.281,0.112,0.596,0.091,0.893-0.117
	c0.191-0.135,1.26,0.796,1.33,1.932c0.035,0.615,0.271,1.318,0.393,1.923c0.145,0.731-0.047,1.49-0.525,2.064
	c-0.074,0.09-0.1,0.209-0.07,0.32c0.6,2.343,3.311,12.309,3.871,12.824c0.324-0.06,0.59,0.047,0.768,0.249
	c5.48,6.176,11.664,16.259,11.486,19.42c-1.234,2.314-1.102,2.194-0.078,3.45c1.908,2.345,1.875,2.456,1.15,4.866
	c0.424-0.685,1.174-1.102,1.979-1.102c0.805,0.002,1.551,0.419,1.973,1.104c0.314,0.509,0.631,1.016,1.059,1.397
	c1.129,1.013,1.711,2.5,1.572,4.011c0,0.004,1.736,0.017,4.145,1.826c3.045,2.292,13.807,14.613,14.229,17.989
	c0.186,1.504-0.428,2.979-1.199,4.283c-0.889,1.501-3.758,4.623-4.248,6.307c-0.24,0.833-1.578,1.213-1.568,1.712
	c0.014,0.681,0.223,2.104,1.207,4.912c0.291,0.831,0.967,6.983,0.633,9.467c-0.199,1.451-0.193,1.714,0.164,3.312
	c0.115,0.498-1.137,1.924-2.002,1.308c-1.08-0.773-1.982-0.659-2.096-0.433c-0.002,0.002-0.002,0.003-0.002,0.004
	c-1.492,2.449-6.867,2.887-5.67,5.493c0.354,0.769,0.711,1.54,1.018,2.322c0.363,0.923,0.562,1.912,0.594,2.901
	c0.01,0.427,1.496,3.563,2.678,4.801c25.928,27.112,62.451,44.005,102.928,44.005c70.652,0,129.275-51.455,140.467-118.933
	C401.27,286.879,407.5,276.668,418.482,258.017z M252.379,176.662c6.119-2.573,7.26-4.733,7.668-6.184
	c0.092-0.329,0.346-0.585,0.674-0.679c0.004,0,0.006-0.001,0.012-0.003c0,0,0,0,0-0.002c0.066-0.331,0.234-0.632,0.482-0.858
	c0.486-0.454,0.854-1.021,1.256-1.555c1.488,4.764,3.195,9.579,5.127,14.469c-0.074,0.864-0.27,1.718-0.604,2.533
	c-0.006,0.01-0.008,0.021-0.012,0.03c-0.506,1.33,0.531,2.722-0.16,4.041c-0.809,1.538-2.686,0.32-3.119,2.175
	c-0.18,0.782-1.711-0.369-2.234-0.892c-0.055-1.526-0.641-2.229-1.07-3.423c-0.348-0.968-1.135-1.713-2.119-2.007
	c-2.617-0.78-3.15,1.779-5.463,1.067c-1.863-0.574-3.17-2.253-3.268-4.202c-0.1-1.948,1.031-3.751,2.828-4.511
	C252.377,176.663,252.377,176.663,252.379,176.662z M269.059,231.989c-0.094,0.501-0.498,0.873-0.562,1.386
	c-0.043,0.333,0.387,0.519,0.277,0.875c-0.275,0.899-0.531,0.947-0.705,0.976c-0.246,0.043-0.418-0.037-0.521-0.088
	c-0.307-0.146-0.52-0.428-0.812-0.604c-0.154-0.094-0.336-0.12-0.5-0.19c-0.506-0.216-1.977-1.231-2.434-1.201
	c-0.162,0.008-0.297,0.132-0.457,0.117c-0.008-0.001-0.016-0.002-0.021-0.002c-0.084-0.006-0.227-0.029-0.32-0.193
	c-0.062-0.106,0.283-1.187,0.584-1.086c0.191,0.062,0.123,0.158,0.361,0.177c0.234,0.021,0.373-0.256,0.617-0.212
	c0.385,0.066,0.648,0.423,1.055,0.434c0.305,0.009,0.488-0.295,0.779-0.319c0.213-0.021,0.406,0.118,0.619,0.07
	c0.225-0.054,0.396-0.201,0.588-0.313c0.375-0.221,0.326-0.025,0.758-0.07c0.137-0.019,0.25-0.093,0.383-0.117
	c0.027-0.006,0.057-0.006,0.086-0.003C269.025,231.644,269.102,231.761,269.059,231.989z"/>
</svg>
