<?xml version="1.0" encoding="UTF-8" standalone="no"?>
<!-- Created with Inkscape (http://www.inkscape.org/) -->

<svg
   xmlns:dc="http://purl.org/dc/elements/1.1/"
   xmlns:cc="http://creativecommons.org/ns#"
   xmlns:rdf="http://www.w3.org/1999/02/22-rdf-syntax-ns#"
   xmlns:svg="http://www.w3.org/2000/svg"
   xmlns="http://www.w3.org/2000/svg"
   xmlns:sodipodi="http://sodipodi.sourceforge.net/DTD/sodipodi-0.dtd"
   xmlns:inkscape="http://www.inkscape.org/namespaces/inkscape"
   width="25.872808"
   height="25.872808"
   viewBox="0 0 6.8455139 6.8455139"
   version="1.1"
   id="svg8"
   inkscape:version="0.92.1 r15371"
   sodipodi:docname="icon.svg"
   inkscape:export-filename="D:\desarrollo\workspaces\PHP\moodle-mod_treasurehunt\pix\icon.png"
   inkscape:export-xdpi="96"
   inkscape:export-ydpi="96">
  <defs
     id="defs2" />
  <sodipodi:namedview
     id="base"
     pagecolor="#ffffff"
     bordercolor="#666666"
     borderopacity="1.0"
     inkscape:pageopacity="0.0"
     inkscape:pageshadow="2"
     inkscape:zoom="7.2407734"
     inkscape:cx="20.798563"
     inkscape:cy="20.2839"
     inkscape:document-units="mm"
     inkscape:current-layer="layer1"
     showgrid="false"
     inkscape:window-width="1536"
     inkscape:window-height="801"
     inkscape:window-x="-8"
     inkscape:window-y="-8"
     inkscape:window-maximized="1"
     units="px"
     fit-margin-top="0"
     fit-margin-left="0"
     fit-margin-right="0"
     fit-margin-bottom="0" />
  <metadata
     id="metadata5">
    <rdf:RDF>
      <cc:Work
         rdf:about="">
        <dc:format>image/svg+xml</dc:format>
        <dc:type
           rdf:resource="http://purl.org/dc/dcmitype/StillImage" />
        <dc:title></dc:title>
      </cc:Work>
    </rdf:RDF>
  </metadata>
  <g
     inkscape:label="Layer 1"
     inkscape:groupmode="layer"
     id="layer1"
     transform="translate(-74.414062,-125.06808)">
    <g
       id="g3714"
       transform="matrix(0.19015317,0,0,0.19015317,73.273143,123.92716)">
      <polygon
         id="polygon3680"
         points="39,18 42,25 6,25 9,18 6,13 42,13 "
         style="fill:#4e342e" />
      <path
         id="path3682"
         d="M 42,42 H 6 V 25 H 42 Z M 42,13 C 42,13 41.875,6 37,6 32.125,6 15.813,6 11,6 6,6 6,13 6,13 Z"
         inkscape:connector-curvature="0"
         style="fill:#795548" />
      <path
         id="path3684"
         d="M 42,32 H 6 v -2 h 36 z m 0,4 H 6 v 2 h 36 z"
         inkscape:connector-curvature="0"
         style="fill:#5d4037" />
      <path
         id="path3686"
         d="m 28,25 v 4 c 0,2.2 -1.8,4 -4,4 -2.2,0 -4,-1.8 -4,-4 V 25 Z M 6,42 h 6 C 12,38.687 9.314,36 6,36 Z m 36,-6 c -3.314,0 -6,2.687 -6,6 h 6 z M 24,9 c -2.2,0 -4,1.8 -4,4 h 8 C 28,10.8 26.2,9 24,9 Z"
         inkscape:connector-curvature="0"
         style="fill:#ffab00" />
      <polygon
         id="polygon3688"
         points="9,18 6,13 42,13 39,18 "
         style="fill:#212121" />
      <path
         id="path3690"
         d="m 38,25 c 0,-1.657 -1.343,-3 -3,-3 0,-1.657 -1.343,-3 -3,-3 -0.473,0 -0.914,0.119 -1.312,0.314 C 30.265,18.535 29.449,18 28.5,18 28.012,18 27.559,18.146 27.174,18.388 26.844,18.146 26.44,18 26,18 25.625,18 25.279,18.109 24.979,18.289 24.87,17.009 23.808,16 22.5,16 21.269,16 20.251,16.892 20.044,18.063 19.868,18.024 19.687,18 19.5,18 18.192,18 17.13,19.009 17.021,20.289 16.721,20.109 16.375,20 16,20 c -1.105,0 -2,0.896 -2,2 0,0.018 0.005,0.034 0.005,0.051 C 13.842,22.018 13.673,22 13.5,22 12.119,22 11,23.119 11,24.5 c 0,0.171 0.018,0.338 0.05,0.5 z"
         inkscape:connector-curvature="0"
         style="fill:#ffc400" />
      <path
         id="path3692"
         d="M 37.942,24.424 C 37.916,24.29 37.871,24.164 37.828,24.038 37.812,23.993 37.803,23.945 37.785,23.9 37.72,23.735 37.639,23.581 37.547,23.432 37.546,23.431 37.545,23.429 37.545,23.428 37.016,22.574 36.078,22 35,22 34.214,22 33.504,22.309 32.969,22.804 32.989,22.706 33,22.604 33,22.5 33,21.671 32.328,21 31.5,21 30.744,21 30.125,21.562 30.021,22.289 29.721,22.109 29.375,22 29,22 28.84,22 28.687,22.023 28.537,22.059 28.085,21.42 27.343,21 26.5,21 25.91,21 25.374,21.213 24.946,21.556 24.744,20.666 23.951,20 23,20 22.127,20 21.392,20.563 21.12,21.343 20.8,21.126 20.415,21 20,21 19.127,21 18.392,21.563 18.12,22.343 17.8,22.126 17.415,22 17,22 16.324,22 15.728,22.338 15.366,22.852 14.908,22.333 14.246,22 13.5,22 c -0.815,0 -1.532,0.396 -1.989,1 v 0 c 0,0 0,0 0,0 -0.068,0.09 -0.128,0.186 -0.183,0.285 -0.017,0.03 -0.034,0.061 -0.05,0.092 -0.043,0.085 -0.082,0.171 -0.116,0.262 -0.025,0.065 -0.043,0.133 -0.062,0.201 -0.019,0.068 -0.04,0.135 -0.053,0.206 C 11.018,24.193 11,24.344 11,24.5 c 0,0.171 0.018,0.338 0.05,0.5 h 7.672 5.789 6.211 1.278 6 c 0,-0.198 -0.021,-0.39 -0.058,-0.576 z"
         inkscape:connector-curvature="0"
         style="fill:#ffe57f" />
      <path
         id="path3694"
         d="m 22,21 -1,2 -2,-1 1,-2 z m 8,-1 -2,1 1,2 2,-1 z"
         inkscape:connector-curvature="0"
         style="fill:#ff1744" />
      <path
         id="path3696"
         d="m 24,31 v 0 c -0.55,0 -1,-0.45 -1,-1 v -1 c 0,-0.55 0.45,-1 1,-1 v 0 c 0.55,0 1,0.45 1,1 v 1 c 0,0.55 -0.45,1 -1,1 z"
         inkscape:connector-curvature="0"
         style="fill:#3e2723" />
    </g>
  </g>
</svg>
