<svg version="1.1" xmlns="http://www.w3.org/2000/svg" xmlns:xlink="http://www.w3.org/1999/xlink" viewBox="0 0 172 172"><g fill="none" fill-rule="nonzero" stroke="none" stroke-width="1" stroke-linecap="butt" stroke-linejoin="miter" stroke-miterlimit="10" stroke-dasharray="" stroke-dashoffset="0" font-family="none" font-weight="none" font-size="none" text-anchor="none" style="mix-blend-mode: normal"><path d="M0,172v-172h172v172z" fill="none"></path><g><path d="M21.5,89.58333l10.75,-25.08333l-10.75,-17.91667h129l-10.75,17.91667l10.75,25.08333z" fill="#4e342e"></path><path d="M150.5,150.5h-129v-60.91667h129zM150.5,46.58333c0,0 -0.44792,-25.08333 -17.91667,-25.08333c-17.46875,0 -75.92008,0 -93.16667,0c-17.91667,0 -17.91667,25.08333 -17.91667,25.08333z" fill="#795548"></path><path d="M150.5,114.66667h-129v-7.16667h129zM150.5,129h-129v7.16667h129z" fill="#5d4037"></path><path d="M100.33333,89.58333v14.33333c0,7.88333 -6.45,14.33333 -14.33333,14.33333c-7.88333,0 -14.33333,-6.45 -14.33333,-14.33333v-14.33333zM21.5,150.5h21.5c0,-11.87158 -9.62483,-21.5 -21.5,-21.5zM150.5,129c-11.87517,0 -21.5,9.62842 -21.5,21.5h21.5zM86,32.25c-7.88333,0 -14.33333,6.45 -14.33333,14.33333h28.66667c0,-7.88333 -6.45,-14.33333 -14.33333,-14.33333z" fill="#ffab00"></path><path d="M32.25,64.5l-10.75,-17.91667h129l-10.75,17.91667z" fill="#212121"></path><path d="M136.16667,89.58333c0,-5.93758 -4.81242,-10.75 -10.75,-10.75c0,-5.93758 -4.81242,-10.75 -10.75,-10.75c-1.69492,0 -3.27517,0.42642 -4.70133,1.12517c-1.51575,-2.79142 -4.43975,-4.7085 -7.84033,-4.7085c-1.74867,0 -3.37192,0.52317 -4.7515,1.39033c-1.1825,-0.86717 -2.63017,-1.39033 -4.20683,-1.39033c-1.34375,0 -2.58358,0.39058 -3.65858,1.03558c-0.39058,-4.58667 -4.19608,-8.20225 -8.88308,-8.20225c-4.41108,0 -8.05892,3.19633 -8.80067,7.39242c-0.63067,-0.13975 -1.27925,-0.22575 -1.94933,-0.22575c-4.687,0 -8.4925,3.61558 -8.88308,8.20225c-1.075,-0.645 -2.31483,-1.03558 -3.65858,-1.03558c-3.95958,0 -7.16667,3.21067 -7.16667,7.16667c0,0.0645 0.01792,0.12183 0.01792,0.18275c-0.58408,-0.11825 -1.18967,-0.18275 -1.80958,-0.18275c-4.94858,0 -8.95833,4.00975 -8.95833,8.95833c0,0.61275 0.0645,1.21117 0.17917,1.79167z" fill="#ffc400"></path><path d="M135.95883,87.51933c-0.09317,-0.48017 -0.25442,-0.93167 -0.4085,-1.38317c-0.05733,-0.16125 -0.08958,-0.33325 -0.15408,-0.4945c-0.23292,-0.59125 -0.52317,-1.14308 -0.85283,-1.677c-0.00358,-0.00358 -0.00717,-0.01075 -0.00717,-0.01433c-1.89558,-3.06017 -5.25675,-5.117 -9.11958,-5.117c-2.8165,0 -5.36067,1.10725 -7.27775,2.881c0.07167,-0.35117 0.11108,-0.71667 0.11108,-1.08933c0,-2.97058 -2.408,-5.375 -5.375,-5.375c-2.709,0 -4.92708,2.01383 -5.29975,4.61892c-1.075,-0.645 -2.31483,-1.03558 -3.65858,-1.03558c-0.57333,0 -1.12158,0.08242 -1.65908,0.21142c-1.61967,-2.28975 -4.2785,-3.79475 -7.29925,-3.79475c-2.11417,0 -4.03483,0.76325 -5.5685,1.99233c-0.72383,-3.18917 -3.56542,-5.57567 -6.97317,-5.57567c-3.12825,0 -5.762,2.01742 -6.73667,4.81242c-1.14667,-0.77758 -2.52625,-1.22908 -4.01333,-1.22908c-3.12825,0 -5.762,2.01742 -6.73667,4.81242c-1.14667,-0.77758 -2.52625,-1.22908 -4.01333,-1.22908c-2.42233,0 -4.558,1.21117 -5.85517,3.053c-1.64117,-1.85975 -4.01333,-3.053 -6.6865,-3.053c-2.92042,0 -5.48967,1.419 -7.12725,3.58333v0v0c-0.24367,0.3225 -0.45867,0.6665 -0.65575,1.02125c-0.06092,0.1075 -0.12183,0.21858 -0.17917,0.32967c-0.15408,0.30458 -0.29383,0.61275 -0.41567,0.93883c-0.08958,0.23292 -0.15408,0.47658 -0.22217,0.72025c-0.06808,0.24367 -0.14333,0.48375 -0.18992,0.73817c-0.10392,0.52675 -0.16842,1.06783 -0.16842,1.62683c0,0.61275 0.0645,1.21117 0.17917,1.79167h27.49133h20.74392h22.25608h4.5795h21.5c0,-0.7095 -0.07525,-1.3975 -0.20783,-2.064z" fill="#ffe57f"></path><path d="M78.83333,75.25l-3.58333,7.16667l-7.16667,-3.58333l3.58333,-7.16667zM107.5,71.66667l-7.16667,3.58333l3.58333,7.16667l7.16667,-3.58333z" fill="#ff1744"></path><path d="M86,111.08333v0c-1.97083,0 -3.58333,-1.6125 -3.58333,-3.58333v-3.58333c0,-1.97083 1.6125,-3.58333 3.58333,-3.58333v0c1.97083,0 3.58333,1.6125 3.58333,3.58333v3.58333c0,1.97083 -1.6125,3.58333 -3.58333,3.58333z" fill="#3e2723"></path></g></g></svg>